<svg version="1.1" id="Layer_1" xmlns="http://www.w3.org/2000/svg" width="277" height="50" x="0" y="0" viewBox="0 0 277 50" style="enable-background:new 0 0 277 50" xml:space="preserve"><style>.st0{fill:#00539b}</style><path class="st0" d="M25.7 29.7c-3.9 2.9-9.7 4.5-10.2 4.6.4-.2 5.2-2.5 7.3-4.6 1-1 1.8-2.4 2.3-3.6-.3.2-.4.6-2.9 1.9-2.3 1.2-6.3 2.7-6.7 2.8.3-.2 3.2-1.8 4.9-3.7 1-1.1 1.8-2.2 2.3-3.2-2 1.6-6.7 3.3-7.1 3.5.3-.2 2-1.2 3.4-2.9 1-1.2 1.2-2 1.3-2.6-2.3 1.8-4.5 2.1-4.8 2.1.3-.2 2.2-1.5 2.3-4.2-1.7 1.6-3.2 1-3.9.4-.7-.6-.7-1.9-.7-1.9V0h-2.3v1.7H7.7V0H5.4v1.7H2.3V0H0v21s0 6 5.5 10.5c3.8 3.2 10 6.1 10 6.1.5-.2 6.3-3.1 8.8-5.4 1.8-1.6 2.7-2.7 3.3-4-.6.5-1.2 1-1.9 1.5z"/><path class="st0" d="M22.6 16.5V1.7h-2.1v17.6s.1 1.3-.3 2.6c2.8-1.8 2.4-5.4 2.4-5.4zM25.4 18.2V0h-2.1v20.8s.1 1.4-.6 3.1c2.6-2.1 2.7-5.7 2.7-5.7zM28.1 19.4V1.7H26V22s-.2 2.8-.8 4.1c2.9-1.9 2.9-6.7 2.9-6.7z"/><path class="st0" d="M30.8 20.9V0h-2.1v23.9s-.1 2.1-1.1 4.3c3.3-3.2 3.2-7.3 3.2-7.3zM19.9 15.2V0h-2.1v17.9s0 1.4-.1 1.9c2.5-2.1 2.2-4.6 2.2-4.6z"/><g><path class="st0" d="M41.4 35.5h2.7c4 0 5.5 2.3 5.5 5.5 0 4-2.7 5.5-6.3 5.5h-1.9v-11zm1.1 10.1h.9c3.1 0 5.2-1.3 5.2-4.7 0-3.4-2-4.5-4.5-4.5h-1.6v9.2zM58.2 44.7c0 .6 0 1.3.1 1.9h-1v-1.4c-.3.7-.9 1.6-2.6 1.6-2 0-2.8-1.3-2.8-3.1v-5.2h1v4.9c0 1.5.5 2.5 1.9 2.5 1.8 0 2.4-1.6 2.4-2.9v-4.5h1v6.2zM60.7 34.7h1v7.1l3.6-3.3h1.3l-3.9 3.6 4.4 4.5h-1.4l-4-4.2v4.2h-1V34.7zM74.1 46.3c-.7.3-1.6.4-2.3.4-2.7 0-3.7-1.8-3.7-4.2 0-2.5 1.4-4.2 3.4-4.2 2.3 0 3.2 1.8 3.2 4v.5h-5.5c0 1.7.9 3.1 2.7 3.1.7 0 1.8-.3 2.3-.6v1zm-.5-4.3c0-1.4-.6-2.8-2.1-2.8s-2.4 1.5-2.4 2.8h4.5zM88.3 42.7c0 3.3-2.4 4.1-4 4.1s-4-.8-4-4.1v-7.2h1.1v7.2c0 1.8 1 3.1 2.9 3.1s2.9-1.3 2.9-3.1v-7.2h1.1v7.2zM90.8 40.4c0-.6 0-1.3-.1-1.9h1v1.4c.3-.7.9-1.6 2.6-1.6 2 0 2.8 1.3 2.8 3.1v5.2h-1v-4.9c0-1.5-.5-2.5-1.9-2.5-1.8 0-2.4 1.6-2.4 2.9v4.5h-1v-6.2zM100.6 36.3h-1V35h1v1.3zm-1 2.2h1v8.1h-1v-8.1zM105.9 46.6h-1.2l-2.7-8.1h1.1l2.2 7 2.3-7h1l-2.7 8.1zM115.6 46.3c-.7.3-1.6.4-2.3.4-2.7 0-3.7-1.8-3.7-4.2 0-2.5 1.4-4.2 3.4-4.2 2.3 0 3.2 1.8 3.2 4v.5h-5.5c0 1.7.9 3.1 2.7 3.1.7 0 1.8-.3 2.3-.6v1zm-.5-4.3c0-1.4-.6-2.8-2.1-2.8s-2.4 1.5-2.4 2.8h4.5zM118.1 40.3c0-.9 0-1.2-.1-1.8h1V40c.4-.9 1-1.7 2.1-1.7.2 0 .5 0 .7.1v1c-.2-.1-.5-.1-.7-.1-1.6 0-2 1.8-2 3.2v4h-1v-6.2zM122.8 45.4c.6.3 1.3.5 2.1.5 1 0 1.8-.5 1.8-1.4 0-1.9-3.9-1.6-3.9-4 0-1.6 1.3-2.2 2.6-2.2.4 0 1.3.1 2 .4l-.1.9c-.5-.2-1.2-.4-1.8-.4-1 0-1.7.3-1.7 1.3 0 1.5 4 1.3 4 4 0 1.7-1.6 2.3-2.8 2.3-.8 0-1.6-.1-2.3-.4l.1-1zM130.5 36.3h-1V35h1v1.3zm-1 2.2h1v8.1h-1v-8.1zM136.6 39.3h-1.8v5.2c0 .7.3 1.3 1.1 1.3.4 0 .6-.1.9-.2l.1.8c-.2.1-.7.2-1.2.2-1.8 0-1.8-1.2-1.8-2.7v-4.7h-1.6v-.9h1.6v-1.9l1-.3v2.3h1.8v.9zM140.8 47.8c-.4 1.1-1 2.2-2.1 2.2-.4 0-.7 0-1.1-.1l.1-.9c.2.1.4.1.7.1.9 0 1.1-.7 1.5-1.8l.2-.7-2.9-8.2h1.1l2.3 6.8 2.3-6.7h1l-3.1 9.3zM149.2 45.2c.7.4 1.4.7 2.4.7 1.4 0 2.5-.7 2.5-2.3 0-2.2-5.1-2.4-5.1-5.3 0-1.8 1.6-2.9 3.5-2.9.5 0 1.4.1 2.2.4l-.2 1c-.5-.3-1.3-.4-2-.4-1.1 0-2.4.5-2.4 1.9 0 2.2 5.1 2.2 5.1 5.5 0 2.2-1.9 3.1-3.6 3.1-1.1 0-1.9-.2-2.5-.5l.1-1.2zM162.6 39.6c-.5-.2-1.2-.4-1.7-.4-1.9 0-3 1.4-3 3.4 0 1.8 1.1 3.4 2.9 3.4.6 0 1.2-.1 1.8-.4l.1.9c-.7.2-1.3.3-2.1.3-2.6 0-3.9-2-3.9-4.2 0-2.5 1.6-4.2 4-4.2 1 0 1.7.2 1.9.3v.9zM164.4 34.7h1v5.2c.4-.9 1.3-1.6 2.5-1.6 2.2 0 2.8 1.4 2.8 3.4v4.8h-1v-4.8c0-1.4-.3-2.6-1.9-2.6-1.8 0-2.4 1.7-2.4 3.1v4.3h-1V34.7zM176.3 38.3c2.6 0 3.8 2 3.8 4.2s-1.2 4.2-3.8 4.2c-2.6 0-3.8-2-3.8-4.2.1-2.2 1.2-4.2 3.8-4.2zm0 7.6c1.7 0 2.7-1.5 2.7-3.4s-.9-3.4-2.7-3.4c-1.7 0-2.7 1.5-2.7 3.4.1 1.9 1 3.4 2.7 3.4zM185.2 38.3c2.6 0 3.8 2 3.8 4.2s-1.2 4.2-3.8 4.2c-2.6 0-3.8-2-3.8-4.2s1.1-4.2 3.8-4.2zm0 7.6c1.7 0 2.7-1.5 2.7-3.4s-.9-3.4-2.7-3.4c-1.7 0-2.7 1.5-2.7 3.4s.9 3.4 2.7 3.4zM190.8 34.7h1v11.9h-1V34.7zM201.5 38.3c2.6 0 3.8 2 3.8 4.2s-1.2 4.2-3.8 4.2c-2.6 0-3.8-2-3.8-4.2s1.2-4.2 3.8-4.2zm0 7.6c1.7 0 2.7-1.5 2.7-3.4s-.9-3.4-2.7-3.4-2.7 1.5-2.7 3.4 1 3.4 2.7 3.4zM207.9 39.3h-1.6v-.9h1.6v-.6c0-1.7.1-3.4 2.1-3.4.3 0 .7 0 .9.2l-.1.9c-.2-.1-.5-.2-.8-.2-1.4 0-1.2 1.5-1.2 2.4v.7h1.8v.9h-1.8v7.2h-1v-7.2zM216.6 35.5h1.7l4 9.7 4.1-9.7h1.6v11.1h-1.1v-10l-4 10h-.9l-4.2-10v10h-1.1V35.5zM236 46.3c-.7.3-1.6.4-2.3.4-2.7 0-3.7-1.8-3.7-4.2 0-2.5 1.4-4.2 3.4-4.2 2.3 0 3.2 1.8 3.2 4v.5h-5.5c0 1.7.9 3.1 2.7 3.1.7 0 1.8-.3 2.3-.6v1zm-.5-4.3c0-1.4-.6-2.8-2.1-2.8S231 40.7 231 42h4.5zM244.9 46.6h-1v-1.3c-.5 1-1.4 1.5-2.5 1.5-2.2 0-3.3-1.8-3.3-4.2 0-2.5 1-4.2 3.3-4.2 1.6 0 2.4 1.2 2.5 1.6v-5.2h1v11.8zm-3.4-.7c1.8 0 2.4-1.9 2.4-3.4s-.6-3.4-2.4-3.4c-1.9 0-2.4 1.8-2.4 3.4 0 1.6.5 3.4 2.4 3.4zM248.3 36.3h-1V35h1v1.3zm-1 2.2h1v8.1h-1v-8.1zM256.1 39.6c-.5-.2-1.2-.4-1.7-.4-1.9 0-3 1.4-3 3.4 0 1.8 1.1 3.4 2.9 3.4.6 0 1.2-.1 1.8-.4l.1.9c-.7.2-1.3.3-2.1.3-2.6 0-3.9-2-3.9-4.2 0-2.5 1.6-4.2 4-4.2 1 0 1.7.2 2 .3l-.1.9zM258.9 36.3h-1V35h1v1.3zm-1 2.2h1v8.1h-1v-8.1zM261.4 40.4c0-.6 0-1.3-.1-1.9h1v1.4c.3-.7.9-1.6 2.6-1.6 2 0 2.8 1.3 2.8 3.1v5.2h-1v-4.9c0-1.5-.5-2.5-1.9-2.5-1.8 0-2.4 1.6-2.4 2.9v4.5h-1v-6.2zM275.6 46.3c-.7.3-1.6.4-2.3.4-2.7 0-3.7-1.8-3.7-4.2 0-2.5 1.4-4.2 3.4-4.2 2.3 0 3.2 1.8 3.2 4v.5h-5.5c0 1.7.9 3.1 2.7 3.1.7 0 1.8-.3 2.3-.6v1zm-.5-4.3c0-1.4-.6-2.8-2.1-2.8s-2.4 1.5-2.4 2.8h4.5z"/></g><g><path class="st0" d="M40.6 1.7H47c6.1 0 10.4 1.9 10.4 8.7 0 6.5-4.4 8.8-10.4 8.8h-6.4V1.7zm4.7 14h1.8c3.5 0 5.4-1.8 5.4-5.3s-2-5.3-5.4-5.3h-1.8v10.6zM73 19.2h-4.1v-2.4h-.1c-.9 1.9-2.7 2.7-4.8 2.7-3.6 0-5-2.5-5-5.2V6.1h4.5v6.3c0 2.5.9 3.3 2.1 3.3 1.9 0 2.8-1.3 2.8-4.1V6.1H73v13.1zM75.7.4h4.5v11.2h.1l3.8-5.5H89l-4.5 6 4.9 7.1h-5.5l-3.6-6.5h-.1v6.5h-4.5V.4z"/><path class="st0" d="M93.6 13.9c.3 1.8 1.6 2.5 3.8 2.5 1.2 0 2.6-.3 4-1v3.2c-1.5.6-3.1.8-4.8.8-4.3 0-7.6-2.5-7.6-6.8s2.9-6.8 7-6.8c4.8 0 6.6 3.4 6.6 7.3v.8h-9zm4.9-2.5c0-1.5-.7-2.7-2.5-2.7-1.6 0-2.4 1.2-2.5 2.7h5zM113.1 1.7h4.6c3.6 0 6.6 1.3 6.6 5.2 0 3.9-3 5.3-6.2 5.3h-2.5v7h-2.5V1.7zm2.5 8.3h2.5c1.6 0 3.5-.8 3.5-3.1 0-2.2-2.3-3-3.9-3h-2.1V10zM127 7.3c1.2-.7 2.6-1.2 4.2-1.2 3.7 0 5.1 1.8 5.1 5.3v5.3c0 1.5.1 2.1.1 2.5h-2.2v-1.7h-.1c-.6.8-1.8 2-4 2-2.8 0-4.7-1.2-4.7-4 0-3.2 3.5-4.2 5.9-4.2.9 0 1.6 0 2.5.1 0-2.2-.8-3.3-3.2-3.3-1.3 0-2.8.5-3.7 1.3l.1-2.1zm6.9 5.8c-.5 0-1-.1-1.5-.1-1.3 0-4.4.2-4.4 2.5 0 1.4 1.3 2.1 2.4 2.1 2.3 0 3.6-1.5 3.6-3.4v-1.1zM147.1 8.3h-3.4v7c0 1.5.9 2.3 2 2.3.7 0 1.3-.2 1.6-.5v2c-.5.2-1.3.4-2 .4-2.4 0-3.9-1.2-3.9-3.7V8.3h-2.9V6.4h2.9v-3l2.4-.8v3.7h3.4v2zM150 .4h2.4v7.8h.1c.9-1.4 2.3-2.1 4.1-2.1 3.3 0 4.8 2.1 4.8 5.5v7.6H159v-6.6c0-3-.7-4.4-2.7-4.6-2.7 0-3.9 2.2-3.9 5.3v5.9H150V.4zM170.4 6.1c3.9 0 6.5 2.8 6.5 6.7 0 3.7-2.7 6.7-6.5 6.7-3.9 0-6.5-3-6.5-6.7 0-3.9 2.6-6.7 6.5-6.7zm0 11.5c2.8 0 4-2.5 4-4.8 0-2.4-1.5-4.8-4-4.8s-4 2.4-4 4.8c0 2.2 1.2 4.8 4 4.8zM179.7.4h2.4v18.8h-2.4V.4zM191.4 6.1c3.9 0 6.5 2.8 6.5 6.7 0 3.7-2.7 6.7-6.5 6.7-3.9 0-6.5-3-6.5-6.7 0-3.9 2.6-6.7 6.5-6.7zm0 11.5c2.8 0 4-2.5 4-4.8 0-2.4-1.5-4.8-4-4.8s-4 2.4-4 4.8c0 2.2 1.3 4.8 4 4.8zM211.8 18.6c0 3.9-2 6.1-6.6 6.1-1.4 0-2.5-.2-4.6-.9l.3-2.2c1.8.8 2.9 1.2 4.6 1.2 2.5 0 4-1.7 4-4.4v-1.3h-.1c-1 1.3-2.7 2-4.3 2-3.7 0-5.5-3-5.5-6.3s1.9-6.8 5.7-6.8c2.3 0 3.5.8 4.2 2.2h.1V6.4h2.2v12.2zm-2.4-5.7c0-2.7-1.2-4.9-3.7-4.9-2.4 0-3.6 2.6-3.6 4.8 0 2.4 1.4 4.5 3.6 4.5s3.7-2 3.7-4.4zM215.1 22.6c.3.1.7.2 1.1.2 2.1 0 2.8-2.9 2.8-3.2 0-.3-.3-.9-.5-1.4l-4.3-11.9h2.6l3.4 10.6h.1l3.5-10.6h2.4l-4.7 13.1c-.9 2.5-1.8 5.3-4.9 5.3-.8 0-1.2-.1-1.6-.2l.1-1.9z"/></g></svg>